#!OML:ASF H:\ManfredETheater\Project 1\Capture day 1\Session 1\subject.ASF
:FULLY-SPECIFIED
:DEGREES
62
root -3.15223 15.1145 4.22976 -17.2813 27.7871 -16.7255
lowerback 20.789 -6.3513 -4.12222
upperback 2.20937 -9.57555 -3.45725
thorax -9.05858 -4.45519 1.21044
lowerneck -17.403 0.813541 -0.978516
upperneck 25.5932 0.966964 1.89795
head 11.159 0.58937 0.999887
rclavicle 5.14852e-014 -1.90833e-014
rhumerus -69.1268 -29.1246 26.4236
rradius 88.5665
rwrist -20.0544
rhand -36.1444 -2.00189
rfingers 7.12502
rthumb -9.24915 -31.779
lclavicle 5.14852e-014 -1.90833e-014
lhumerus -57.5754 24.0198 52.8156
lradius 79.607
lwrist 8.51999
lhand -32.6842 -1.64114
lfingers 7.12502
lthumb -5.90928 28.2565
rfemur -17.8929 -19.2308 28.0795
rtibia 77.4326
rfoot -24.8771 -14.2338
rtoes -20.7653
lfemur -52.0644 11.433 -11.691
ltibia 77.2762
lfoot -11.6598 -6.65833
ltoes 23.5268
63
root -3.16616 15.1344 4.81705 -17.5382 28.6256 -17.4408
lowerback 20.7749 -6.14893 -4.27879
upperback 2.33088 -9.35104 -3.69085
thorax -8.94017 -4.34987 0.975368
lowerneck -17.4913 0.614996 -1.17108
upperneck 26.4842 0.596896 2.41481
head 11.5187 0.469739 1.18076
rclavicle -2.5842e-014 -6.36111e-015
rhumerus -68.3066 -29.6183 26.099
rradius 90.0738
rwrist -20.3208
rhand -37.2368 -1.90647
rfingers 7.12502
rthumb -10.3031 -31.6341
lclavicle -2.5842e-014 -6.36111e-015
lhumerus -58.917 25.4247 50.5456
lradius 78.5762
lwrist 12.4514
lhand -33.006 -1.97956
lfingers 7.12502
lthumb -6.21996 27.9091
rfemur -17.5142 -20.8401 28.7484
rtibia 79.3468
rfoot -21.9732 -13.5633
rtoes -22.2562
lfemur -52.8539 11.3829 -12.8431
ltibia 73.1834
lfoot -10.4481 -7.67571
ltoes 24.0845
64
root -3.16752 15.1515 5.38794 -17.8732 29.2947 -18.0856
lowerback 20.9014 -5.90874 -4.31877
upperback 2.53121 -9.05149 -3.91756
thorax -8.82836 -4.2119 0.675524
lowerneck -17.6329 0.429657 -1.37443
upperneck 27.2348 0.276884 2.8187
head 11.8432 0.359453 1.33026
rclavicle -6.63941e-014 -2.8625e-014
rhumerus -67.5506 -30.11 25.5351
rradius 91.516
rwrist -20.5545
rhand -38.2759 -1.66456
rfingers 7.12502
rthumb -11.3053 -31.3399
lclavicle -6.63941e-014 -2.8625e-014
lhumerus -60.0323 26.6349 48.4617
lradius 77.6334
lwrist 15.4105
lhand -33.166 -2.42802
lfingers 7.12502
lthumb -6.37444 27.4561
rfemur -17.4693 -22.1137 29.1604
rtibia 81.4759
rfoot -18.3813 -12.5231
rtoes -23.7467
lfemur -52.9878 10.8447 -13.6311
ltibia 68.9864
lfoot -8.76537 -8.79069
ltoes 24.7
65
root -3.15664 15.161 5.94434 -18.2914 29.7708 -18.6984
lowerback 21.1175 -5.62462 -4.20943
upperback 2.81469 -8.65538 -4.1019
thorax -8.68726 -4.03297 0.317478
lowerneck -17.8039 0.256658 -1.59147
upperneck 27.8063 0.0191177 3.0835
head 12.1086 0.258743 1.43854
rclavicle -2.18663e-014 -9.54166e-015
rhumerus -66.8663 -30.5909 24.8474
rradius 92.867
rwrist -20.6449
rhand -39.1759 -1.36115
rfingers 7.12502
rthumb -12.1733 -30.987
lclavicle -2.18663e-014 -9.54166e-015
lhumerus -60.8676 27.6503 46.7072
lradius 76.693
lwrist 17.0064
lhand -33.2492 -2.73353
lfingers 7.12502
lthumb -6.45478 27.1481
rfemur -17.7463 -23.0541 29.3638
rtibia 83.7281
rfoot -14.6892 -11.2275
rtoes -25.1926
lfemur -52.5532 9.85601 -13.9462
ltibia 64.8702
lfoot -6.60882 -9.87013
ltoes 25.6767
